<svg xmlns="http://www.w3.org/2000/svg" viewBox="1312 40 1320 1320" width="1320" height="1320"><circle cx="1972.0" cy="700" r="620" fill="none" stroke="#0B6E6E" stroke-width="52"/><circle cx="1972.0" cy="700" r="145" fill="#E07A5F"/><circle cx="1972.0" cy="700" r="240" fill="none" stroke="#0B6E6E" stroke-width="26"/><line x1="2292.0" y1="700.0" x2="2432.0" y2="700.0" stroke="#0B6E6E" stroke-width="30" stroke-linecap="round"/><line x1="2281.1" y1="782.8" x2="2358.4" y2="803.5" stroke="#E07A5F" stroke-width="30" stroke-linecap="round"/><line x1="2249.1" y1="860.0" x2="2370.4" y2="930.0" stroke="#0B6E6E" stroke-width="30" stroke-linecap="round"/><line x1="2198.3" y1="926.3" x2="2254.8" y2="982.8" stroke="#E07A5F" stroke-width="30" stroke-linecap="round"/><line x1="2132.0" y1="977.1" x2="2202.0" y2="1098.4" stroke="#0B6E6E" stroke-width="30" stroke-linecap="round"/><line x1="2054.8" y1="1009.1" x2="2075.5" y2="1086.4" stroke="#E07A5F" stroke-width="30" stroke-linecap="round"/><line x1="1972.0" y1="1020.0" x2="1972.0" y2="1160.0" stroke="#0B6E6E" stroke-width="30" stroke-linecap="round"/><line x1="1889.2" y1="1009.1" x2="1868.5" y2="1086.4" stroke="#E07A5F" stroke-width="30" stroke-linecap="round"/><line x1="1812.0" y1="977.1" x2="1742.0" y2="1098.4" stroke="#0B6E6E" stroke-width="30" stroke-linecap="round"/><line x1="1745.7" y1="926.3" x2="1689.2" y2="982.8" stroke="#E07A5F" stroke-width="30" stroke-linecap="round"/><line x1="1694.9" y1="860.0" x2="1573.6" y2="930.0" stroke="#0B6E6E" stroke-width="30" stroke-linecap="round"/><line x1="1662.9" y1="782.8" x2="1585.6" y2="803.5" stroke="#E07A5F" stroke-width="30" stroke-linecap="round"/><line x1="1652.0" y1="700.0" x2="1512.0" y2="700.0" stroke="#0B6E6E" stroke-width="30" stroke-linecap="round"/><line x1="1662.9" y1="617.2" x2="1585.6" y2="596.5" stroke="#E07A5F" stroke-width="30" stroke-linecap="round"/><line x1="1694.9" y1="540.0" x2="1573.6" y2="470.0" stroke="#0B6E6E" stroke-width="30" stroke-linecap="round"/><line x1="1745.7" y1="473.7" x2="1689.2" y2="417.2" stroke="#E07A5F" stroke-width="30" stroke-linecap="round"/><line x1="1812.0" y1="422.9" x2="1742.0" y2="301.6" stroke="#0B6E6E" stroke-width="30" stroke-linecap="round"/><line x1="1889.2" y1="390.9" x2="1868.5" y2="313.6" stroke="#E07A5F" stroke-width="30" stroke-linecap="round"/><line x1="1972.0" y1="380.0" x2="1972.0" y2="240.0" stroke="#0B6E6E" stroke-width="30" stroke-linecap="round"/><line x1="2054.8" y1="390.9" x2="2075.5" y2="313.6" stroke="#E07A5F" stroke-width="30" stroke-linecap="round"/><line x1="2132.0" y1="422.9" x2="2202.0" y2="301.6" stroke="#0B6E6E" stroke-width="30" stroke-linecap="round"/><line x1="2198.3" y1="473.7" x2="2254.8" y2="417.2" stroke="#E07A5F" stroke-width="30" stroke-linecap="round"/><line x1="2249.1" y1="540.0" x2="2370.4" y2="470.0" stroke="#0B6E6E" stroke-width="30" stroke-linecap="round"/><line x1="2281.1" y1="617.2" x2="2358.4" y2="596.5" stroke="#E07A5F" stroke-width="30" stroke-linecap="round"/><g stroke="#0B6E6E" stroke-width="20" stroke-linecap="round" stroke-linejoin="round" fill="none"><line x1="2470" y1="1230" x2="2526" y2="1230"/><line x1="2498" y1="1230" x2="2498" y2="1308"/><polyline points="2548,1308 2548,1230 2585,1278 2622,1230 2622,1308"/></g></svg>