<svg xmlns="http://www.w3.org/2000/svg" viewBox="0 0 4000 2446" width="4000" height="2446"><path d="M 1972.0 125.1 L 1981.0 126.7 L 1990.0 128.5 L 1998.9 130.4 L 2007.7 132.4 L 2016.5 134.6 L 2025.2 136.9 L 2033.9 139.3 L 2042.5 141.9 L 2051.0 144.6 L 2059.5 147.4 L 2067.9 150.4 L 2076.3 153.5 L 2084.5 156.7 L 2092.7 160.0 L 2100.8 163.4 L 2108.8 167.0 L 2116.8 170.7 L 2124.7 174.5 L 2132.5 178.4 L 2140.2 182.5 L 2147.8 186.6 L 2155.3 190.8 L 2162.7 195.2 L 2170.1 199.7 L 2177.3 204.2 L 2184.5 208.9 L 2191.6 213.7 L 2198.5 218.6 L 2205.4 223.5 L 2212.2 228.6 L 2218.9 233.7 L 2225.4 239.0 L 2231.9 244.3 L 2238.3 249.8 L 2244.5 255.3 L 2250.7 260.9 L 2256.7 266.5 L 2262.7 272.3 L 2268.5 278.1 L 2274.2 284.0 L 2279.8 290.0 L 2285.3 296.1 L 2290.7 302.2 L 2296.0 308.4 L 2301.1 314.6 L 2306.2 321.0 L 2311.1 327.3 L 2315.9 333.8 L 2320.6 340.3 L 2325.2 346.8 L 2329.6 353.4 L 2334.0 360.1 L 2338.2 366.8 L 2342.3 373.6 L 2346.3 380.4 L 2350.1 387.2 L 2353.8 394.1 L 2357.5 401.0 L 2361.0 408.0 L 2364.3 414.9 L 2367.6 422.0 L 2370.7 429.0 L 2373.7 436.1 L 2376.6 443.2 L 2379.4 450.3 L 2382.0 457.5 L 2384.6 464.7 L 2387.0 471.9 L 2389.3 479.1 L 2391.4 486.3 L 2393.5 493.5 L 2395.4 500.8 L 2397.2 508.0 L 2398.9 515.3 L 2400.4 522.5 L 2401.9 529.8 L 2403.2 537.1 L 2404.4 544.3 L 2405.5 551.6 L 2406.4 558.8 L 2407.3 566.1 L 2408.0 573.3 L 2408.6 580.6 L 2409.1 587.8 L 2409.5 595.0 L 2409.8 602.1 L 2409.9 609.3 L 2410.0 616.4 L 2409.9 623.6 L 2409.7 630.7 L 2409.5 637.7 L 2409.1 644.8 L 2408.6 651.8 L 2407.9 658.8 L 2407.2 665.7 L 2406.4 672.7 L 2405.5 679.6 L 2404.4 686.4 L 2403.3 693.2 L 2402.0 700.0 L 2400.7 706.7 L 2399.3 713.4 L 2397.7 720.1 L 2396.1 726.7 L 2394.4 733.2 L 2392.5 739.8 L 2390.6 746.2 L 2388.6 752.6 L 2386.5 759.0 L 2384.3 765.3 L 2382.1 771.6 L 2379.7 777.8 L 2377.3 783.9 L 2374.8 790.0 L 2372.2 796.1 L 2369.5 802.1 L 2366.8 808.0 L 2364.0 813.9 L 2361.1 819.7 L 2358.2 825.5 A 21.7 21.7 0 0 1 2316.9 812.1 L 2319.3 806.8 L 2321.5 801.5 L 2323.6 796.2 L 2325.5 790.8 L 2327.4 785.3 L 2329.2 779.8 L 2330.9 774.3 L 2332.5 768.8 L 2333.9 763.2 L 2335.3 757.5 L 2336.6 751.9 L 2337.8 746.2 L 2338.9 740.5 L 2339.9 734.8 L 2340.8 729.0 L 2341.6 723.3 L 2342.3 717.5 L 2342.9 711.7 L 2343.4 705.8 L 2343.8 700.0 L 2344.1 694.2 L 2344.4 688.3 L 2344.5 682.4 L 2344.5 676.6 L 2344.4 670.7 L 2344.2 664.8 L 2344.0 658.9 L 2343.6 653.1 L 2343.1 647.2 L 2342.6 641.3 L 2341.9 635.4 L 2341.2 629.6 L 2340.3 623.7 L 2339.4 617.9 L 2338.3 612.1 L 2337.2 606.2 L 2335.9 600.4 L 2334.6 594.7 L 2333.2 588.9 L 2331.6 583.1 L 2330.0 577.4 L 2328.3 571.7 L 2326.5 566.0 L 2324.6 560.4 L 2322.6 554.8 L 2320.5 549.2 L 2318.3 543.6 L 2316.1 538.1 L 2313.7 532.6 L 2311.2 527.1 L 2308.7 521.7 L 2306.1 516.3 L 2303.3 511.0 L 2300.5 505.7 L 2297.6 500.4 L 2294.7 495.2 L 2291.6 490.1 L 2288.4 484.9 L 2285.2 479.9 L 2281.9 474.9 L 2278.5 469.9 L 2275.0 465.0 L 2271.4 460.1 L 2267.8 455.3 L 2264.1 450.6 L 2260.3 445.9 L 2256.4 441.2 L 2252.4 436.7 L 2248.4 432.1 L 2244.3 427.7 L 2240.1 423.3 L 2235.9 419.0 L 2231.6 414.8 L 2227.2 410.6 L 2222.7 406.5 L 2218.2 402.4 L 2213.6 398.5 L 2208.9 394.6 L 2204.2 390.7 L 2199.4 387.0 L 2194.6 383.3 L 2189.7 379.7 L 2184.7 376.2 L 2179.7 372.8 L 2174.6 369.4 L 2169.5 366.1 L 2164.3 362.9 L 2159.0 359.8 L 2153.7 356.8 L 2148.4 353.8 L 2143.0 351.0 L 2137.6 348.2 L 2132.1 345.5 L 2126.5 342.9 L 2121.0 340.4 L 2115.3 337.9 L 2109.7 335.6 L 2104.0 333.4 L 2098.3 331.2 L 2092.5 329.1 L 2086.7 327.2 L 2080.9 325.3 L 2075.0 323.5 L 2069.1 321.8 L 2063.2 320.2 L 2057.2 318.7 L 2051.3 317.3 L 2045.3 316.0 L 2039.2 314.7 L 2033.2 313.6 L 2027.1 312.6 L 2021.1 311.6 L 2015.0 310.8 L 2008.9 310.1 L 2002.7 309.4 L 1996.6 308.9 L 1990.5 308.4 L 1984.3 308.1 L 1978.2 307.8 L 1972.0 307.7 A 91.3 91.3 0 0 1 1972.0 125.1 Z" fill="#0B6E6E"/><path d="M 2469.9 987.4 L 2464.0 994.4 L 2458.0 1001.3 L 2451.9 1008.1 L 2445.7 1014.7 L 2439.4 1021.2 L 2433.0 1027.6 L 2426.6 1033.9 L 2420.1 1040.1 L 2413.5 1046.2 L 2406.8 1052.1 L 2400.0 1057.9 L 2393.2 1063.6 L 2386.3 1069.1 L 2379.3 1074.5 L 2372.3 1079.8 L 2365.2 1085.0 L 2358.0 1090.0 L 2350.8 1095.0 L 2343.5 1099.7 L 2336.1 1104.4 L 2328.7 1108.9 L 2321.3 1113.3 L 2313.8 1117.6 L 2306.2 1121.7 L 2298.7 1125.7 L 2291.0 1129.6 L 2283.4 1133.3 L 2275.7 1136.9 L 2267.9 1140.4 L 2260.2 1143.7 L 2252.4 1146.9 L 2244.5 1150.0 L 2236.7 1152.9 L 2228.8 1155.7 L 2220.9 1158.4 L 2213.0 1160.9 L 2205.0 1163.3 L 2197.1 1165.6 L 2189.1 1167.7 L 2181.1 1169.7 L 2173.1 1171.6 L 2165.2 1173.3 L 2157.2 1174.9 L 2149.2 1176.4 L 2141.2 1177.7 L 2133.2 1178.9 L 2125.2 1180.0 L 2117.2 1180.9 L 2109.2 1181.7 L 2101.3 1182.4 L 2093.3 1183.0 L 2085.4 1183.4 L 2077.5 1183.7 L 2069.6 1183.9 L 2061.7 1183.9 L 2053.8 1183.9 L 2046.0 1183.7 L 2038.2 1183.3 L 2030.4 1182.9 L 2022.7 1182.3 L 2015.0 1181.6 L 2007.3 1180.8 L 1999.7 1179.9 L 1992.1 1178.8 L 1984.5 1177.6 L 1977.0 1176.4 L 1969.5 1175.0 L 1962.1 1173.5 L 1954.7 1171.8 L 1947.4 1170.1 L 1940.1 1168.2 L 1932.8 1166.3 L 1925.7 1164.2 L 1918.5 1162.0 L 1911.5 1159.8 L 1904.5 1157.4 L 1897.5 1154.9 L 1890.6 1152.3 L 1883.8 1149.6 L 1877.0 1146.8 L 1870.3 1143.9 L 1863.7 1140.9 L 1857.1 1137.9 L 1850.6 1134.7 L 1844.2 1131.4 L 1837.9 1128.1 L 1831.6 1124.6 L 1825.4 1121.1 L 1819.2 1117.5 L 1813.2 1113.8 L 1807.2 1110.0 L 1801.3 1106.1 L 1795.5 1102.2 L 1789.7 1098.1 L 1784.1 1094.0 L 1778.5 1089.9 L 1773.0 1085.6 L 1767.6 1081.3 L 1762.2 1076.9 L 1757.0 1072.4 L 1751.8 1067.9 L 1746.7 1063.3 L 1741.7 1058.7 L 1736.8 1053.9 L 1732.0 1049.2 L 1727.3 1044.3 L 1722.7 1039.4 L 1718.1 1034.5 L 1713.6 1029.5 L 1709.3 1024.4 L 1705.0 1019.3 L 1700.8 1014.2 L 1696.7 1009.0 L 1692.6 1003.8 L 1688.7 998.5 L 1684.9 993.2 L 1681.1 987.9 L 1677.4 982.5 L 1673.8 977.1 L 1670.2 971.7 A 21.7 21.7 0 0 1 1702.5 942.7 L 1705.8 947.3 L 1709.3 951.9 L 1712.9 956.4 L 1716.6 960.8 L 1720.4 965.1 L 1724.3 969.4 L 1728.2 973.6 L 1732.2 977.8 L 1736.3 981.9 L 1740.5 985.9 L 1744.8 989.8 L 1749.1 993.7 L 1753.5 997.5 L 1757.9 1001.2 L 1762.5 1004.9 L 1767.1 1008.4 L 1771.7 1012.0 L 1776.5 1015.4 L 1781.2 1018.7 L 1786.1 1022.0 L 1791.0 1025.2 L 1796.0 1028.3 L 1801.0 1031.4 L 1806.0 1034.3 L 1811.2 1037.2 L 1816.4 1040.0 L 1821.6 1042.7 L 1826.9 1045.3 L 1832.2 1047.8 L 1837.5 1050.3 L 1843.0 1052.6 L 1848.4 1054.9 L 1853.9 1057.1 L 1859.4 1059.2 L 1865.0 1061.2 L 1870.6 1063.1 L 1876.3 1064.9 L 1881.9 1066.7 L 1887.6 1068.3 L 1893.4 1069.9 L 1899.1 1071.3 L 1904.9 1072.7 L 1910.8 1074.0 L 1916.6 1075.1 L 1922.5 1076.2 L 1928.4 1077.2 L 1934.3 1078.1 L 1940.2 1078.9 L 1946.1 1079.6 L 1952.1 1080.2 L 1958.0 1080.7 L 1964.0 1081.1 L 1970.0 1081.5 L 1976.0 1081.7 L 1982.0 1081.8 L 1988.0 1081.8 L 1994.0 1081.7 L 2000.0 1081.6 L 2006.0 1081.3 L 2012.0 1080.9 L 2018.0 1080.5 L 2024.0 1079.9 L 2030.0 1079.3 L 2036.0 1078.5 L 2042.0 1077.7 L 2048.0 1076.7 L 2053.9 1075.7 L 2059.8 1074.5 L 2065.8 1073.3 L 2071.7 1072.0 L 2077.6 1070.5 L 2083.4 1069.0 L 2089.3 1067.4 L 2095.1 1065.7 L 2100.9 1063.9 L 2106.6 1062.0 L 2112.4 1060.0 L 2118.1 1057.9 L 2123.7 1055.7 L 2129.4 1053.5 L 2135.0 1051.1 L 2140.5 1048.6 L 2146.1 1046.1 L 2151.6 1043.5 L 2157.0 1040.8 L 2162.4 1037.9 L 2167.8 1035.1 L 2173.1 1032.1 L 2178.4 1029.0 L 2183.6 1025.8 L 2188.8 1022.6 L 2193.9 1019.3 L 2199.0 1015.9 L 2204.0 1012.4 L 2209.0 1008.8 L 2213.9 1005.2 L 2218.7 1001.4 L 2223.5 997.6 L 2228.3 993.8 L 2232.9 989.8 L 2237.5 985.8 L 2242.1 981.6 L 2246.6 977.5 L 2251.0 973.2 L 2255.3 968.9 L 2259.6 964.5 L 2263.8 960.0 L 2268.0 955.5 L 2272.0 950.9 L 2276.0 946.2 L 2279.9 941.5 L 2283.8 936.7 L 2287.6 931.8 L 2291.3 926.9 L 2294.9 921.9 L 2298.4 916.9 L 2301.9 911.8 L 2305.2 906.6 L 2308.5 901.4 L 2311.7 896.2 A 91.3 91.3 0 0 1 2469.9 987.4 Z" fill="#E07A5F"/><path d="M 1474.1 987.4 L 1471.0 978.8 L 1468.1 970.2 L 1465.3 961.5 L 1462.6 952.9 L 1460.1 944.2 L 1457.7 935.5 L 1455.5 926.7 L 1453.4 918.0 L 1451.5 909.2 L 1449.7 900.5 L 1448.1 891.7 L 1446.6 883.0 L 1445.2 874.2 L 1444.0 865.5 L 1442.9 856.7 L 1442.0 848.0 L 1441.2 839.2 L 1440.6 830.5 L 1440.1 821.8 L 1439.7 813.1 L 1439.5 804.5 L 1439.4 795.8 L 1439.5 787.2 L 1439.7 778.6 L 1440.0 770.0 L 1440.5 761.5 L 1441.1 753.0 L 1441.8 744.5 L 1442.7 736.1 L 1443.7 727.7 L 1444.8 719.3 L 1446.0 711.0 L 1447.4 702.7 L 1448.9 694.5 L 1450.6 686.3 L 1452.4 678.2 L 1454.2 670.1 L 1456.3 662.1 L 1458.4 654.2 L 1460.7 646.3 L 1463.0 638.4 L 1465.5 630.6 L 1468.1 622.9 L 1470.9 615.2 L 1473.7 607.6 L 1476.7 600.1 L 1479.7 592.7 L 1482.9 585.3 L 1486.2 578.0 L 1489.6 570.7 L 1493.1 563.6 L 1496.7 556.5 L 1500.4 549.5 L 1504.2 542.6 L 1508.1 535.7 L 1512.1 528.9 L 1516.1 522.3 L 1520.3 515.7 L 1524.6 509.2 L 1529.0 502.7 L 1533.4 496.4 L 1538.0 490.2 L 1542.6 484.0 L 1547.3 478.0 L 1552.1 472.0 L 1557.0 466.1 L 1561.9 460.4 L 1566.9 454.7 L 1572.0 449.1 L 1577.2 443.6 L 1582.5 438.2 L 1587.8 433.0 L 1593.1 427.8 L 1598.6 422.7 L 1604.1 417.7 L 1609.7 412.8 L 1615.3 408.0 L 1621.0 403.4 L 1626.7 398.8 L 1632.5 394.3 L 1638.4 390.0 L 1644.3 385.7 L 1650.2 381.6 L 1656.2 377.6 L 1662.3 373.6 L 1668.4 369.8 L 1674.5 366.1 L 1680.6 362.5 L 1686.8 359.0 L 1693.1 355.6 L 1699.4 352.3 L 1705.7 349.1 L 1712.0 346.0 L 1718.3 343.1 L 1724.7 340.2 L 1731.1 337.5 L 1737.6 334.8 L 1744.0 332.3 L 1750.5 329.9 L 1757.0 327.6 L 1763.5 325.4 L 1770.0 323.3 L 1776.5 321.3 L 1783.1 319.4 L 1789.6 317.6 L 1796.2 315.9 L 1802.7 314.3 L 1809.3 312.9 L 1815.8 311.5 L 1822.4 310.2 L 1828.9 309.1 L 1835.5 308.0 L 1842.0 307.1 L 1848.6 306.2 L 1855.1 305.4 L 1861.6 304.7 L 1868.1 304.1 L 1874.6 303.6 L 1881.1 303.2 L 1887.6 302.8 A 21.7 21.7 0 0 1 1896.6 345.2 L 1890.9 345.8 L 1885.2 346.6 L 1879.5 347.4 L 1873.8 348.4 L 1868.2 349.5 L 1862.5 350.7 L 1856.9 352.0 L 1851.3 353.5 L 1845.7 355.0 L 1840.2 356.6 L 1834.6 358.3 L 1829.1 360.1 L 1823.6 362.0 L 1818.2 364.0 L 1812.7 366.1 L 1807.3 368.3 L 1802.0 370.6 L 1796.6 373.0 L 1791.3 375.4 L 1786.1 378.0 L 1780.9 380.6 L 1775.7 383.4 L 1770.6 386.2 L 1765.5 389.1 L 1760.4 392.1 L 1755.4 395.2 L 1750.4 398.4 L 1745.5 401.7 L 1740.7 405.0 L 1735.9 408.4 L 1731.1 411.9 L 1726.4 415.5 L 1721.8 419.2 L 1717.2 422.9 L 1712.7 426.7 L 1708.2 430.6 L 1703.8 434.6 L 1699.5 438.7 L 1695.2 442.8 L 1691.0 447.0 L 1686.8 451.2 L 1682.8 455.6 L 1678.8 460.0 L 1674.8 464.5 L 1670.9 469.0 L 1667.1 473.6 L 1663.4 478.3 L 1659.8 483.0 L 1656.2 487.8 L 1652.7 492.6 L 1649.3 497.5 L 1645.9 502.5 L 1642.7 507.5 L 1639.5 512.6 L 1636.4 517.8 L 1633.3 523.0 L 1630.4 528.2 L 1627.5 533.5 L 1624.8 538.8 L 1622.1 544.2 L 1619.5 549.6 L 1617.0 555.1 L 1614.5 560.6 L 1612.2 566.2 L 1609.9 571.8 L 1607.8 577.4 L 1605.7 583.1 L 1603.7 588.8 L 1601.8 594.6 L 1600.0 600.3 L 1598.3 606.1 L 1596.7 612.0 L 1595.2 617.8 L 1593.8 623.7 L 1592.4 629.7 L 1591.2 635.6 L 1590.1 641.6 L 1589.0 647.5 L 1588.1 653.5 L 1587.2 659.6 L 1586.5 665.6 L 1585.8 671.6 L 1585.2 677.7 L 1584.8 683.8 L 1584.4 689.9 L 1584.1 695.9 L 1583.9 702.0 L 1583.9 708.1 L 1583.9 714.2 L 1584.0 720.3 L 1584.2 726.4 L 1584.5 732.5 L 1584.9 738.6 L 1585.5 744.7 L 1586.1 750.8 L 1586.8 756.9 L 1587.6 763.0 L 1588.5 769.0 L 1589.5 775.0 L 1590.6 781.1 L 1591.8 787.1 L 1593.0 793.1 L 1594.4 799.1 L 1595.9 805.0 L 1597.5 810.9 L 1599.2 816.8 L 1600.9 822.7 L 1602.8 828.6 L 1604.7 834.4 L 1606.8 840.2 L 1608.9 846.0 L 1611.1 851.7 L 1613.5 857.4 L 1615.9 863.0 L 1618.4 868.7 L 1621.0 874.2 L 1623.7 879.8 L 1626.4 885.3 L 1629.3 890.7 L 1632.3 896.2 A 91.3 91.3 0 0 1 1474.1 987.4 Z" fill="#0B6E6E"/><g transform="translate(0,354)"><g transform="translate(291.91,1624.94) scale(0.670391,-0.670391)"><path fill="#E07A5F" stroke="#E07A5F" stroke-width="14" d="M232 -15Q173 -15 126.0 11.5Q79 38 51.5 93.5Q24 149 24 236Q24 324 55.0 381.5Q86 439 137.0 467.5Q188 496 248 496Q283 496 315.0 489.0Q347 482 372 468V598Q372 619 365.5 629.0Q359 639 338 643L319 647V657L501 701L512 692L508 552V63Q508 43 515.0 30.5Q522 18 541 13L550 10V0L379 -11L370 25Q343 7 308.5 -4.0Q274 -15 232 -15Z M290 22Q332 22 367 47V444Q330 468 291 468Q243 468 209.0 412.5Q175 357 175 238Q175 119 207.0 70.5Q239 22 290 22Z M809 496Q874 496 920.0 469.5Q966 443 990.5 397.5Q1015 352 1015 294Q1015 283 1014.0 271.5Q1013 260 1010 251H712Q713 143 750.5 95.5Q788 48 862 48Q912 48 943.0 64.0Q974 80 1001 111L1011 102Q980 47 928.5 16.0Q877 -15 805 -15Q734 -15 679.0 15.5Q624 46 593.0 103.0Q562 160 562 239Q562 321 598.0 378.5Q634 436 690.5 466.0Q747 496 809 496Z M806 476Q777 476 756.5 458.5Q736 441 724.5 396.5Q713 352 712 271H883Q893 380 875.0 428.0Q857 476 806 476Z M1029 0V10L1044 14Q1064 20 1071.5 32.0Q1079 44 1079 63V376Q1079 398 1071.5 408.5Q1064 419 1044 423L1029 427V437L1201 495L1211 485L1220 399V391Q1234 419 1256.5 442.5Q1279 466 1306.5 481.0Q1334 496 1361 496Q1399 496 1419.0 475.0Q1439 454 1439 422Q1439 388 1419.5 369.5Q1400 351 1373 351Q1331 351 1299 393L1297 395Q1287 409 1274.0 410.5Q1261 412 1250 398Q1240 389 1233.5 376.5Q1227 364 1221 348V69Q1221 29 1256 19L1288 10V0Z M1434 0V10L1448 14Q1467 19 1474.5 31.0Q1482 43 1483 63V376Q1483 398 1476.0 408.5Q1469 419 1449 423L1434 427V437L1605 495L1615 485L1623 417Q1656 450 1698.5 473.0Q1741 496 1787 496Q1835 496 1864.0 476.5Q1893 457 1908 416Q1947 453 1992.5 474.5Q2038 496 2081 496Q2152 496 2185.5 462.0Q2219 428 2219 355V62Q2219 23 2255 13L2266 10V0H2035V10L2045 13Q2064 19 2071.5 31.0Q2079 43 2079 63V369Q2079 411 2064.0 426.5Q2049 442 2016 442Q1990 442 1965.5 430.5Q1941 419 1914 396Q1919 380 1920.5 361.0Q1922 342 1922 321V62Q1923 23 1958 13L1967 10V0H1735V10L1749 14Q1768 20 1775.5 31.5Q1783 43 1783 63V368Q1783 408 1768.5 425.0Q1754 442 1719 442Q1696 442 1673.0 430.5Q1650 419 1625 397V62Q1625 23 1660 13L1669 10V0Z M2409 -15Q2351 -15 2311.5 18.0Q2272 51 2272 113Q2272 160 2320.0 199.5Q2368 239 2471 259Q2487 262 2507.0 265.5Q2527 269 2549 273V352Q2549 420 2532.5 447.5Q2516 475 2481 475Q2457 475 2443.0 459.5Q2429 444 2425 406L2423 395Q2421 352 2402.0 332.0Q2383 312 2355 312Q2329 312 2312.0 328.0Q2295 344 2295 371Q2295 412 2323.5 440.0Q2352 468 2399.0 482.0Q2446 496 2501 496Q2590 496 2638.5 452.5Q2687 409 2687 311V90Q2687 45 2729 45H2751L2760 37Q2741 13 2718.5 0.0Q2696 -13 2655 -13Q2611 -13 2585.5 7.5Q2560 28 2552 62Q2522 30 2490.5 7.5Q2459 -15 2409 -15Z M2470 46Q2490 46 2507.5 55.5Q2525 65 2549 85V253Q2539 251 2529.0 249.0Q2519 247 2506 245Q2460 233 2432.5 204.5Q2405 176 2405 128Q2405 87 2424.0 66.5Q2443 46 2470 46Z"/></g><g transform="translate(0.000000,2182.000000) scale(0.100000,-0.100000)"><path fill="#0B6E6E" stroke="#0B6E6E" stroke-width="8" d="M23187 9259 c-343 -42 -711 -219 -930 -448 -396 -415 -435 -1126 -88
-1611 203 -284 448 -502 1213 -1084 875 -665 1151 -1010 1253 -1566 26 -142
32 -490 10 -645 -44 -326 -139 -577 -285 -759 -36 -44 -80 -102 -97 -127 -74
-107 -334 -322 -506 -417 -459 -254 -1147 -316 -1665 -150 -855 273 -1339
1149 -1117 2021 49 192 86 257 254 450 421 480 800 644 1233 533 417 -106 686
-430 691 -831 3 -279 -120 -489 -380 -649 -146 -90 -165 -132 -93 -209 126
-137 355 -165 552 -67 350 174 533 616 429 1036 -196 792 -1246 1180 -2107
779 -231 -107 -462 -339 -654 -654 -30 -50 -83 -134 -117 -188 -129 -205 -117
-176 -122 -297 -4 -128 14 -482 34 -651 90 -762 780 -1416 1645 -1559 378 -62
635 -58 1099 20 765 127 1480 654 1806 1329 223 462 271 979 140 1492 -169
660 -530 1074 -1701 1950 -727 545 -952 790 -1036 1128 -29 118 -31 327 -4
425 173 633 1071 735 1622 185 177 -177 368 -503 435 -744 39 -138 107 -241
159 -241 37 0 70 42 79 101 23 143 24 518 2 654 -11 72 -28 222 -36 335 -21
276 -30 323 -70 352 -20 15 -69 7 -99 -16 -82 -62 -113 -71 -241 -70 -114 0
-125 2 -220 38 -147 56 -206 73 -349 101 -249 49 -581 73 -739 54z  M29640 7787 c-38 -19 -60 -75 -85 -220 -16 -92 -33 -152 -55 -200
-33 -68 -33 -68 -15 -149 14 -67 16 -106 10 -242 -8 -183 1 -230 49 -242 53
-13 91 26 155 160 96 199 278 395 436 471 204 98 518 141 967 133 230 -4 257
-8 278 -47 21 -40 35 -22 -685 -866 -675 -789 -2004 -2354 -2072 -2437 -107
-133 -127 -195 -77 -245 38 -37 123 -29 268 26 417 160 949 176 1411 41 275
-80 473 -166 1150 -497 788 -387 1118 -546 1280 -616 83 -36 177 -77 209 -92
137 -61 615 -179 846 -209 498 -64 1059 15 1445 203 371 181 853 601 1022 891
31 52 75 122 98 155 107 152 115 255 20 255 -45 0 -87 -33 -198 -158 -488
-550 -1168 -738 -2154 -597 -538 78 -1132 244 -1908 535 -299 112 -444 158
-745 234 -505 128 -1054 229 -1315 243 -138 7 -155 12 -155 52 0 43 25 74 786
961 384 448 866 1013 1069 1255 204 241 450 532 547 646 249 292 268 323 238
379 -38 71 -133 78 -1100 90 -1262 16 -1428 24 -1587 75 -86 28 -98 30 -133
12z  M33651 7724 c-431 -63 -808 -311 -1064 -699 -159 -242 -230 -447
-258 -747 -15 -167 -6 -606 15 -704 177 -840 1091 -1387 1986 -1188 450 101
865 416 1024 779 17 39 52 106 79 150 166 275 198 937 66 1340 -170 518 -565
892 -1082 1024 -227 59 -546 77 -766 45z m428 -189 c197 -47 350 -201 472
-475 227 -508 260 -1307 78 -1864 -173 -527 -545 -770 -916 -597 -199 93 -349
299 -447 610 -190 605 -140 1533 106 1971 155 277 438 418 707 355z  M26975 7719 c-454 -66 -912 -414 -1140 -867 -56 -110 -138 -358 -156
-468 -17 -109 -18 -512 -1 -634 103 -721 546 -1213 1217 -1349 306 -62 744
-44 1000 40 325 108 689 437 859 778 235 469 259 1026 65 1522 -166 425 -506
765 -892 894 -237 79 -703 120 -952 84z m428 -184 c329 -70 554 -411 662
-1004 13 -75 39 -179 56 -231 32 -94 32 -94 16 -195 -10 -55 -28 -193 -42
-306 -67 -556 -180 -872 -385 -1079 -135 -136 -259 -187 -430 -177 -411 25
-663 413 -766 1182 -25 187 -26 574 -1 750 102 718 465 1150 890 1060z"/></g></g></svg>